<svg xmlns="http://www.w3.org/2000/svg" xmlns:xlink="http://www.w3.org/1999/xlink" width="500" zoomAndPan="magnify" viewBox="0 0 375 374.999991" height="500" preserveAspectRatio="xMidYMid meet" version="1.0"><defs><g/><clipPath id="59e27db34b"><path d="M 96.554688 140.308594 L 299.269531 140.308594 L 299.269531 235.527344 L 96.554688 235.527344 Z M 96.554688 140.308594 " clip-rule="nonzero"/></clipPath><clipPath id="88cd99bb7a"><path d="M 299.265625 156.808594 L 299.265625 219.027344 C 299.265625 223.40625 297.527344 227.601562 294.433594 230.695312 C 291.339844 233.789062 287.144531 235.527344 282.765625 235.527344 L 113.054688 235.527344 C 108.679688 235.527344 104.484375 233.789062 101.386719 230.695312 C 98.292969 227.601562 96.554688 223.40625 96.554688 219.027344 L 96.554688 156.808594 C 96.554688 152.433594 98.292969 148.234375 101.386719 145.140625 C 104.484375 142.046875 108.679688 140.308594 113.054688 140.308594 L 282.765625 140.308594 C 287.144531 140.308594 291.339844 142.046875 294.433594 145.140625 C 297.527344 148.234375 299.265625 152.433594 299.265625 156.808594 Z M 299.265625 156.808594 " clip-rule="nonzero"/></clipPath><clipPath id="8f8d127d87"><path d="M 0.554688 0.308594 L 203.269531 0.308594 L 203.269531 95.527344 L 0.554688 95.527344 Z M 0.554688 0.308594 " clip-rule="nonzero"/></clipPath><clipPath id="2203b94641"><path d="M 203.265625 16.808594 L 203.265625 79.027344 C 203.265625 83.40625 201.527344 87.601562 198.433594 90.695312 C 195.339844 93.789062 191.144531 95.527344 186.765625 95.527344 L 17.054688 95.527344 C 12.679688 95.527344 8.484375 93.789062 5.386719 90.695312 C 2.292969 87.601562 0.554688 83.40625 0.554688 79.027344 L 0.554688 16.808594 C 0.554688 12.433594 2.292969 8.234375 5.386719 5.140625 C 8.484375 2.046875 12.679688 0.308594 17.054688 0.308594 L 186.765625 0.308594 C 191.144531 0.308594 195.339844 2.046875 198.433594 5.140625 C 201.527344 8.234375 203.265625 12.433594 203.265625 16.808594 Z M 203.265625 16.808594 " clip-rule="nonzero"/></clipPath><clipPath id="61042b3075"><rect x="0" width="204" y="0" height="96"/></clipPath><clipPath id="a97561b501"><rect x="0" width="103" y="0" height="155"/></clipPath><clipPath id="7615197a4f"><rect x="0" width="61" y="0" height="46"/></clipPath></defs><rect x="-37.5" width="450" fill="#ffffff" y="-37.499999" height="449.999989" fill-opacity="1"/><rect x="-37.5" width="450" fill="#ffffff" y="-37.499999" height="449.999989" fill-opacity="1"/><g clip-path="url(#59e27db34b)"><g clip-path="url(#88cd99bb7a)"><g transform="matrix(1, 0, 0, 1, 96, 140)"><g clip-path="url(#61042b3075)"><g clip-path="url(#8f8d127d87)"><g clip-path="url(#2203b94641)"><path fill="#f6e5e1" d="M 0.554688 0.308594 L 203.269531 0.308594 L 203.269531 95.527344 L 0.554688 95.527344 Z M 0.554688 0.308594 " fill-opacity="1" fill-rule="nonzero"/></g></g></g></g></g></g><path fill="#472b0c" d="M 204.726562 185.835938 C 204.726562 185.835938 202.3125 192.96875 206.824219 196.457031 C 211.335938 199.941406 237.53125 200.453125 249.847656 194.507812 C 249.847656 194.507812 226.0625 172.542969 216.195312 173.671875 C 206.324219 174.804688 204.726562 185.835938 204.726562 185.835938 Z M 204.726562 185.835938 " fill-opacity="1" fill-rule="nonzero"/><path fill="#714516" d="M 217.980469 179.425781 C 217.980469 179.425781 234.398438 193.375 254.960938 198.65625 C 275.523438 203.9375 283.160156 202.300781 283.160156 202.300781 C 283.160156 202.300781 289.554688 181.183594 276.644531 162.707031 C 263.734375 144.230469 225.75 142.59375 212.214844 160.320312 C 201.488281 174.359375 203.9375 190.359375 203.9375 190.359375 C 203.9375 190.359375 208.671875 185.175781 217.980469 179.425781 Z M 217.980469 179.425781 " fill-opacity="1" fill-rule="nonzero"/><path fill="#472b0c" d="M 222.117188 171.691406 C 222.410156 171.816406 222.695312 171.957031 222.972656 172.109375 L 223.816406 172.542969 L 225.492188 173.429688 L 228.847656 175.191406 C 231.082031 176.367188 233.332031 177.511719 235.585938 178.644531 C 237.839844 179.777344 240.109375 180.882812 242.394531 181.945312 C 244.683594 183.007812 246.964844 184.070312 249.28125 185.058594 C 253.898438 187.070312 258.59375 188.914062 263.355469 190.53125 C 263.949219 190.738281 264.550781 190.921875 265.152344 191.117188 L 266.046875 191.410156 L 266.953125 191.683594 C 267.554688 191.863281 268.152344 192.058594 268.761719 192.226562 L 270.582031 192.730469 C 273.015625 193.382812 275.472656 193.945312 277.957031 194.417969 C 275.433594 194.171875 272.933594 193.789062 270.453125 193.269531 C 267.96875 192.742188 265.519531 192.097656 263.085938 191.375 L 261.269531 190.816406 C 260.664062 190.625 260.066406 190.414062 259.464844 190.214844 L 258.5625 189.910156 L 257.667969 189.589844 C 257.070312 189.382812 256.472656 189.175781 255.878906 188.945312 C 253.503906 188.058594 251.160156 187.09375 248.828125 186.097656 C 246.5 185.101562 244.207031 184.023438 241.929688 182.90625 C 239.65625 181.792969 237.402344 180.640625 235.179688 179.425781 C 232.957031 178.207031 230.753906 176.964844 228.578125 175.675781 C 227.492188 175.023438 226.410156 174.367188 225.335938 173.699219 L 223.730469 172.691406 L 222.929688 172.179688 C 222.671875 172.019531 222.402344 171.832031 222.117188 171.691406 Z M 222.117188 171.691406 " fill-opacity="1" fill-rule="nonzero"/><path fill="#472b0c" d="M 234.714844 172.917969 C 234.714844 172.917969 224.84375 169.148438 224.84375 168.113281 C 224.84375 167.078125 228.792969 169.996094 230.953125 169.242188 C 233.113281 168.492188 239.230469 164.152344 239.320312 163.398438 C 239.40625 162.644531 231.234375 161.226562 231.894531 160.664062 C 232.550781 160.101562 248.0625 162.453125 264.042969 173.296875 C 264.042969 173.296875 245.335938 163.304688 242.796875 164.527344 C 240.261719 165.753906 235.089844 169.054688 235.464844 170.183594 C 235.839844 171.316406 244.488281 175.277344 246.558594 174.617188 C 248.625 173.957031 254.265625 169.996094 254.835938 170.183594 C 255.40625 170.371094 248.335938 174.617188 249 175.558594 C 249.667969 176.5 256.898438 180.273438 258.316406 179.140625 C 259.734375 178.007812 273.921875 167.933594 274.015625 168.960938 C 274.109375 169.988281 260.199219 179.046875 260.480469 179.613281 C 260.761719 180.175781 283.136719 190.640625 282.851562 191.300781 C 282.566406 191.960938 242.421875 175.84375 234.714844 172.917969 Z M 234.714844 172.917969 " fill-opacity="1" fill-rule="nonzero"/><path fill="#472b0c" d="M 207.828125 174.238281 C 207.476562 174.691406 216.664062 165.753906 232.175781 159.0625 C 247.683594 152.371094 263.015625 153.875 264.703125 154.539062 C 266.386719 155.203125 253.316406 145.425781 229.542969 150.671875 C 229.542969 150.671875 221.507812 152.171875 211.398438 163.589844 C 211.667969 164.1875 221.628906 151.203125 240.449219 152.652344 C 240.449219 152.652344 220.613281 157.742188 207.828125 174.238281 Z M 207.828125 174.238281 " fill-opacity="1" fill-rule="nonzero"/><path fill="#714516" d="M 284.351562 191.867188 C 284.351562 191.867188 288.300781 191.773438 289.335938 195.355469 C 290.367188 198.933594 288.488281 206.667969 289.617188 207.601562 C 290.742188 208.535156 281.71875 205.714844 282.1875 199.777344 " fill-opacity="1" fill-rule="nonzero"/><g transform="matrix(1, 0, 0, 1, 97, 110)"><g clip-path="url(#a97561b501)"><g fill="#714516" fill-opacity="1"><g transform="translate(0.851509, 120.533225)"><g><path d="M 26.421875 0 L 10.484375 0 L 10.484375 -80.65625 L 26.421875 -80.65625 Z M 26.421875 0 "/></g></g></g><g fill="#714516" fill-opacity="1"><g transform="translate(23.801911, 120.533225)"><g><path d="M 25.921875 0 L 10.484375 0 L 10.484375 -80.65625 L 28.75 -80.65625 L 61.125 -28.6875 L 62.5625 -28.90625 L 62.5625 -80.65625 L 77.890625 -80.65625 L 77.890625 0 L 61.5625 0 L 27.3125 -55.5 L 25.921875 -55.28125 Z M 25.921875 0 "/></g></g></g></g></g><g transform="matrix(1, 0, 0, 1, 200, 193)"><g clip-path="url(#7615197a4f)"><g fill="#714516" fill-opacity="1"><g transform="translate(0.775841, 35.117212)"><g><path d="M 13.046875 0.34375 C 10.984375 0.34375 9.144531 -0.128906 7.53125 -1.078125 C 5.914062 -2.023438 4.648438 -3.410156 3.734375 -5.234375 C 2.816406 -7.066406 2.359375 -9.257812 2.359375 -11.8125 C 2.359375 -14.363281 2.816406 -16.550781 3.734375 -18.375 C 4.648438 -20.195312 5.914062 -21.582031 7.53125 -22.53125 C 9.144531 -23.476562 10.984375 -23.953125 13.046875 -23.953125 C 15.253906 -23.953125 17.085938 -23.535156 18.546875 -22.703125 C 20.015625 -21.867188 21.070312 -20.609375 21.71875 -18.921875 L 19.953125 -17.75 L 19.546875 -17.75 C 18.898438 -19.09375 18.054688 -20.046875 17.015625 -20.609375 C 15.984375 -21.179688 14.660156 -21.46875 13.046875 -21.46875 C 11.566406 -21.46875 10.25 -21.132812 9.09375 -20.46875 C 7.9375 -19.8125 7.019531 -18.765625 6.34375 -17.328125 C 5.664062 -15.890625 5.328125 -14.050781 5.328125 -11.8125 C 5.328125 -9.570312 5.664062 -7.734375 6.34375 -6.296875 C 7.019531 -4.867188 7.9375 -3.820312 9.09375 -3.15625 C 10.25 -2.5 11.566406 -2.171875 13.046875 -2.171875 C 14.765625 -2.171875 16.164062 -2.550781 17.25 -3.3125 C 18.332031 -4.082031 19.140625 -5.332031 19.671875 -7.0625 L 20.078125 -7.0625 L 21.9375 -6.140625 C 21.375 -4.046875 20.335938 -2.441406 18.828125 -1.328125 C 17.316406 -0.210938 15.390625 0.34375 13.046875 0.34375 Z M 13.046875 0.34375 "/></g></g></g><g fill="#714516" fill-opacity="1"><g transform="translate(20.984087, 35.117212)"><g><path d="M 21.25 0 L 18.28125 0 L 16.109375 -6.484375 L 6.046875 -6.484375 L 3.84375 0 L 0.9375 0 L 9.171875 -23.609375 L 13.015625 -23.609375 Z M 10.875 -20.75 L 6.8125 -8.796875 L 15.3125 -8.796875 L 11.28125 -20.75 Z M 10.875 -20.75 "/></g></g></g><g fill="#714516" fill-opacity="1"><g transform="translate(40.223627, 35.117212)"><g><path d="M 12.015625 -23.609375 C 13.640625 -23.609375 15.03125 -23.316406 16.1875 -22.734375 C 17.351562 -22.160156 18.238281 -21.332031 18.84375 -20.25 C 19.457031 -19.164062 19.765625 -17.890625 19.765625 -16.421875 C 19.765625 -14.960938 19.457031 -13.691406 18.84375 -12.609375 C 18.238281 -11.535156 17.351562 -10.703125 16.1875 -10.109375 C 15.03125 -9.523438 13.640625 -9.234375 12.015625 -9.234375 L 6.34375 -9.234375 L 6.34375 0 L 3.5625 0 L 3.5625 -23.609375 Z M 11.9375 -11.609375 C 15.21875 -11.609375 16.859375 -13.210938 16.859375 -16.421875 C 16.859375 -19.640625 15.21875 -21.25 11.9375 -21.25 L 6.34375 -21.25 L 6.34375 -11.609375 Z M 11.9375 -11.609375 "/></g></g></g></g></g><g fill="#714516" fill-opacity="1"><g transform="translate(256.082772, 225.716059)"><g><path d="M 2.203125 0.078125 C 1.929688 0.078125 1.6875 0.0195312 1.46875 -0.09375 C 1.257812 -0.207031 1.097656 -0.363281 0.984375 -0.5625 C 0.878906 -0.757812 0.828125 -0.984375 0.828125 -1.234375 C 0.828125 -1.484375 0.878906 -1.707031 0.984375 -1.90625 C 1.097656 -2.101562 1.257812 -2.257812 1.46875 -2.375 C 1.6875 -2.488281 1.929688 -2.546875 2.203125 -2.546875 C 2.484375 -2.546875 2.726562 -2.488281 2.9375 -2.375 C 3.15625 -2.269531 3.316406 -2.117188 3.421875 -1.921875 C 3.535156 -1.722656 3.59375 -1.5 3.59375 -1.25 C 3.59375 -0.863281 3.46875 -0.546875 3.21875 -0.296875 C 2.96875 -0.046875 2.628906 0.078125 2.203125 0.078125 Z M 2.203125 0.078125 "/></g></g></g><g fill="#714516" fill-opacity="1"><g transform="translate(260.128636, 225.716059)"><g><path d="M 5.03125 0.171875 C 4.195312 0.171875 3.457031 0 2.8125 -0.34375 C 2.175781 -0.695312 1.675781 -1.207031 1.3125 -1.875 C 0.957031 -2.550781 0.78125 -3.363281 0.78125 -4.3125 C 0.78125 -5.257812 0.957031 -6.066406 1.3125 -6.734375 C 1.675781 -7.410156 2.175781 -7.921875 2.8125 -8.265625 C 3.445312 -8.609375 4.171875 -8.78125 4.984375 -8.78125 C 6.804688 -8.78125 7.972656 -8.125 8.484375 -6.8125 L 7 -5.75 L 6.828125 -5.75 C 6.648438 -6.15625 6.421875 -6.457031 6.140625 -6.65625 C 5.859375 -6.851562 5.472656 -6.953125 4.984375 -6.953125 C 4.359375 -6.953125 3.867188 -6.734375 3.515625 -6.296875 C 3.171875 -5.867188 3 -5.207031 3 -4.3125 C 3 -3.425781 3.175781 -2.765625 3.53125 -2.328125 C 3.882812 -1.890625 4.382812 -1.671875 5.03125 -1.671875 C 5.5 -1.671875 5.894531 -1.796875 6.21875 -2.046875 C 6.539062 -2.304688 6.773438 -2.671875 6.921875 -3.140625 L 7.078125 -3.15625 L 8.625 -2.3125 C 8.40625 -1.582031 8 -0.984375 7.40625 -0.515625 C 6.8125 -0.0546875 6.019531 0.171875 5.03125 0.171875 Z M 5.03125 0.171875 "/></g></g></g><g fill="#714516" fill-opacity="1"><g transform="translate(269.009285, 225.716059)"><g><path d="M 5.015625 0.171875 C 4.171875 0.171875 3.425781 0 2.78125 -0.34375 C 2.144531 -0.695312 1.648438 -1.207031 1.296875 -1.875 C 0.953125 -2.550781 0.78125 -3.363281 0.78125 -4.3125 C 0.78125 -5.257812 0.953125 -6.066406 1.296875 -6.734375 C 1.648438 -7.410156 2.144531 -7.921875 2.78125 -8.265625 C 3.425781 -8.609375 4.171875 -8.78125 5.015625 -8.78125 C 5.859375 -8.78125 6.597656 -8.609375 7.234375 -8.265625 C 7.867188 -7.921875 8.363281 -7.410156 8.71875 -6.734375 C 9.070312 -6.066406 9.25 -5.257812 9.25 -4.3125 C 9.25 -3.363281 9.070312 -2.550781 8.71875 -1.875 C 8.363281 -1.207031 7.867188 -0.695312 7.234375 -0.34375 C 6.597656 0 5.859375 0.171875 5.015625 0.171875 Z M 5.015625 -1.671875 C 6.347656 -1.671875 7.015625 -2.550781 7.015625 -4.3125 C 7.015625 -5.21875 6.84375 -5.882812 6.5 -6.3125 C 6.15625 -6.738281 5.660156 -6.953125 5.015625 -6.953125 C 3.671875 -6.953125 3 -6.070312 3 -4.3125 C 3 -2.550781 3.671875 -1.671875 5.015625 -1.671875 Z M 5.015625 -1.671875 "/></g></g></g><g fill="#714516" fill-opacity="1"><g transform="translate(279.022464, 225.716059)"><g><path d="M 1.25 0 L 1.25 -8.625 L 3.328125 -8.625 L 3.328125 -7.46875 L 3.484375 -7.4375 C 3.765625 -7.894531 4.09375 -8.234375 4.46875 -8.453125 C 4.851562 -8.671875 5.335938 -8.78125 5.921875 -8.78125 C 6.578125 -8.78125 7.101562 -8.648438 7.5 -8.390625 C 7.894531 -8.140625 8.179688 -7.765625 8.359375 -7.265625 L 8.53125 -7.265625 C 8.789062 -7.785156 9.128906 -8.164062 9.546875 -8.40625 C 9.972656 -8.65625 10.5 -8.78125 11.125 -8.78125 C 12.90625 -8.78125 13.796875 -7.785156 13.796875 -5.796875 L 13.796875 0 L 11.640625 0 L 11.640625 -5.53125 C 11.640625 -6.03125 11.539062 -6.390625 11.34375 -6.609375 C 11.144531 -6.835938 10.828125 -6.953125 10.390625 -6.953125 C 9.203125 -6.953125 8.609375 -6.160156 8.609375 -4.578125 L 8.609375 0 L 6.4375 0 L 6.4375 -5.53125 C 6.4375 -6.03125 6.335938 -6.390625 6.140625 -6.609375 C 5.941406 -6.835938 5.625 -6.953125 5.1875 -6.953125 C 4.625 -6.953125 4.1875 -6.765625 3.875 -6.390625 C 3.5625 -6.023438 3.40625 -5.4375 3.40625 -4.625 L 3.40625 0 Z M 1.25 0 "/></g></g></g></svg>